# xmcd
#
# Track frame offsets:
#	150
#	12978
#	28694
#	39305
#	50291
#	60327
#	74190
#	88838
#	103424
#	127441
#	151927
#	172138
#	187978
#	198458
#	216711
#	232835
#	250423
#	263264
#	278002
#	296000
#	309396
#	322887
#	332225
#
# Disc length: 4748 seconds
# Revision: 0
# Processed by: cddbd v1.5.2PL0 Copyright (c) Steve Scherf et al.
# Submitted via: dBpowerAMP V12.0
#
DISCID=5b128a17
DTITLE=Various Artist - FAT Favorites 5 [CD5 of 27)
DYEAR=1980
DGENRE=Country
TTITLE0=Jerry Lee Lewis - Good News Travels Fast
TTITLE1=Marshall Chapman - Rode Hard and Put Up Wet
TTITLE2=Mose McCormack - Beans and Make Believe
TTITLE3=Chuck McCabe - Our House
TTITLE4=Alvin Crow and the Pleasant Valley Boys - Fiddler's Lady
TTITLE5=Pop Wagner - Impressionists 2-Step
TTITLE6=California Zephyr - Alligator Man
TTITLE7=Larry Jon Wilson - Broomstraw Philosophers and Scuppernong Wine
TTITLE8=Guthrie Thomas and Ringo Starr - Band of Steel
TTITLE9=Taj Mahal - Satisfied 'n Tickled Too
TTITLE10=Steve Fromholz - I'd Have to Be Crazy
TTITLE11=Kaleidoscope - Little Egypt
TTITLE12=Luke Baldwin - Lost My Sense of Humor (Losing You)
TTITLE13=The Moonlighters - Midnight in Memphis
TTITLE14=J.D. Crowe and The New South - My Home Ain't In the Hall of Fame
TTITLE15=Steven Fromholz - Dear Darcie
TTITLE16=J.D. Crowe and The New South - My Window Faces the South
TTITLE17=Luke Baldwin - Once a Week (Is Simply Not Enough)
TTITLE18=Art Thieme - The Great Turtle Drive
TTITLE19=The Coon Elder Band - I Ain't No Cowboy (I Just Found the Hat)
TTITLE20=California Zephyr - I Ain't Really a Cowboy, I Just Found the Hat
TTITLE21=Bobby Bare - The Stranger
TTITLE22=Bruce "U. Utah" Phillips - Moose Turd Pie
EXTD=
EXTT0=
EXTT1=
EXTT2=
EXTT3=
EXTT4=
EXTT5=
EXTT6=
EXTT7=
EXTT8=
EXTT9=
EXTT10=
EXTT11=
EXTT12=
EXTT13=
EXTT14=
EXTT15=
EXTT16=
EXTT17=
EXTT18=
EXTT19=
EXTT20=
EXTT21=
EXTT22=
PLAYORDER=
